<svg width="12" height="11" viewBox="0 0 12 11" fill="none" xmlns="http://www.w3.org/2000/svg">
<path d="M4.57341 1.39058C5.02244 0.00861239 6.97756 0.00861144 7.42659 1.39058L7.68386 2.18237C7.88467 2.80041 8.4606 3.21885 9.11044 3.21885H9.94298C11.3961 3.21885 12.0002 5.07827 10.8247 5.93237L10.1511 6.42173C9.62539 6.80369 9.4054 7.48075 9.60621 8.09878L9.86348 8.89057C10.3125 10.2725 8.73079 11.4217 7.55522 10.5676L6.88168 10.0783C6.35595 9.69631 5.64405 9.69631 5.11832 10.0783L4.44478 10.5676C3.26921 11.4217 1.68749 10.2725 2.13652 8.89058L2.39379 8.09878C2.5946 7.48075 2.37461 6.80369 1.84888 6.42173L1.17534 5.93237C-0.000229597 5.07827 0.603933 3.21885 2.05702 3.21885H2.88956C3.5394 3.21885 4.11533 2.80041 4.31614 2.18237L4.57341 1.39058Z" fill="#FFC828"/>
</svg>
