<svg width="22" height="23" viewBox="0 0 22 23" fill="none" xmlns="http://www.w3.org/2000/svg">
<path d="M19.0541 9.46164H18.9974V8.1136C18.9974 3.78333 15.3776 0.272949 10.9122 0.272949C6.44676 0.272949 2.82692 3.78333 2.82692 8.1136V9.46164H2.48652C1.23826 9.46164 0.273717 10.5345 0.273717 11.7726V15.2115C0.242277 16.4114 1.2199 17.4088 2.45725 17.4393C2.46702 17.4396 2.47674 17.4397 2.48652 17.4398H4.58582C4.88317 17.4263 5.11292 17.1815 5.09891 16.8931C5.09842 16.8828 5.09761 16.8724 5.09647 16.8621V10.1219C5.09647 9.79175 4.89789 9.46159 4.58582 9.46159H3.9617V8.11355C3.9617 4.39106 7.07355 1.37334 10.9122 1.37334C14.7508 1.37334 17.8626 4.39106 17.8626 8.11355V9.46159H17.2385C16.9264 9.46159 16.7278 9.7917 16.7278 10.1219V16.8621C16.6962 17.1491 16.9105 17.4067 17.2064 17.4374C17.2171 17.4385 17.2278 17.4393 17.2385 17.4398H17.891L17.8342 17.5223C17.4144 18.0634 16.87 18.5018 16.2445 18.8028C15.6189 19.1037 14.9296 19.2587 14.2313 19.2555C13.9214 17.7816 12.438 16.8305 10.9182 17.1311C9.6185 17.3881 8.68144 18.4919 8.67096 19.7782C8.68649 21.2869 9.95212 22.5019 11.5079 22.5018C12.278 22.4897 13.0121 22.1832 13.5504 21.6489C13.9136 21.2882 14.1517 20.8266 14.2313 20.3284C15.1057 20.3316 15.9689 20.1368 16.7519 19.7595C17.535 19.3822 18.2165 18.8328 18.742 18.155L19.281 17.3847C20.5009 17.3022 21.2669 16.5594 21.2669 15.4864V12.0476C21.2669 10.8647 20.3591 9.46164 19.0541 9.46164ZM3.9617 16.3394H2.48652C1.87564 16.325 1.39247 15.8331 1.40735 15.2407C1.40762 15.2309 1.408 15.2212 1.40849 15.2114V11.7725C1.40849 11.1398 1.86239 10.562 2.48652 10.562H3.9617V16.3394ZM12.7278 20.8787C12.5723 21.0423 12.3837 21.173 12.1739 21.263C11.964 21.3529 11.7374 21.4 11.5079 21.4014C10.5849 21.3872 9.83592 20.673 9.80578 19.7783C9.8054 18.8818 10.5545 18.1548 11.4789 18.1544C12.4033 18.1541 13.153 18.8805 13.1534 19.7769V19.7783C13.165 19.9803 13.1332 20.1824 13.06 20.3719C12.9867 20.5614 12.8736 20.7339 12.7278 20.8787ZM20.1322 15.4865C20.1322 16.2293 19.3945 16.3394 19.0541 16.3394H17.8626V10.5621H19.0541C19.6783 10.5621 20.1322 11.4149 20.1322 12.0477V15.4865Z" fill="white"/>
</svg>
