<svg width="18" height="18" viewBox="0 0 18 18" fill="none" xmlns="http://www.w3.org/2000/svg">
<path d="M16.9664 3.1811L14.8187 1.03338C14.5876 0.802324 14.213 0.802324 13.9819 1.03338L0.176317 14.839C-0.0547433 15.07 -0.0547433 15.4447 0.176317 15.6758L2.32413 17.8233C2.55519 18.0544 2.92986 18.0544 3.16095 17.8233L16.9664 4.01792C17.1974 3.78682 17.1974 3.41219 16.9664 3.1811ZM2.74256 16.5681L1.4317 15.2572L10.1843 6.5046L11.4951 7.81549L2.74256 16.5681ZM12.332 6.97871L11.0211 5.66785L14.4003 2.28863L15.7111 3.59949L12.332 6.97871ZM0.59173 4.76701C1.52608 4.76701 2.06361 4.88788 2.33468 5.15895C2.60575 5.43003 2.72665 5.96758 2.72665 6.9019C2.72665 7.22869 2.99156 7.49363 3.31838 7.49363C3.6452 7.49363 3.91011 7.22872 3.91011 6.9019C3.91011 5.96755 4.03098 5.43003 4.30205 5.15895C4.57313 4.88788 5.11068 4.76701 6.045 4.76701C6.37179 4.76701 6.63673 4.5021 6.63673 4.17528C6.63673 3.84846 6.37182 3.58355 6.045 3.58355C5.11065 3.58355 4.57313 3.46265 4.30205 3.19158C4.03098 2.92051 3.91011 2.38295 3.91011 1.44863C3.91008 1.12184 3.64517 0.856934 3.31838 0.856934C2.9916 0.856934 2.72665 1.12184 2.72665 1.44866C2.72665 2.38302 2.60575 2.92054 2.33468 3.19161C2.06361 3.46268 1.52605 3.58359 0.59173 3.58359C0.264911 3.58359 0 3.84853 0 4.17532C0 4.5021 0.264911 4.76701 0.59173 4.76701ZM3.1716 4.02853C3.2236 3.97647 3.27264 3.92152 3.31848 3.86397C3.41015 3.97925 3.51463 4.08374 3.6299 4.17542C3.51462 4.26707 3.41014 4.37155 3.31848 4.48683C3.2268 4.37156 3.12231 4.26708 3.00703 4.17542C3.06461 4.12959 3.11955 4.08055 3.1716 4.02853ZM16.5511 14.0897C15.6168 14.0897 15.0793 13.9688 14.8082 13.6978C14.5371 13.4267 14.4162 12.8891 14.4162 11.9548C14.4162 11.628 14.1513 11.3631 13.8245 11.3631C13.4977 11.3631 13.2327 11.628 13.2327 11.9548C13.2327 12.8892 13.1119 13.4267 12.8408 13.6978C12.5697 13.9688 12.0322 14.0897 11.0979 14.0897C10.7711 14.0897 10.5061 14.3546 10.5061 14.6814C10.5061 15.0082 10.771 15.2732 11.0979 15.2732C12.0322 15.2732 12.5697 15.3941 12.8408 15.6651C13.1119 15.9362 13.2327 16.4738 13.2327 17.4081C13.2327 17.7349 13.4977 17.9998 13.8245 17.9998C14.1513 17.9998 14.4162 17.7349 14.4162 17.4081C14.4162 16.4737 14.5371 15.9363 14.8082 15.6651C15.0793 15.394 15.6168 15.2732 16.5511 15.2732C16.8779 15.2732 17.1429 15.0083 17.1429 14.6814C17.1429 14.3546 16.8779 14.0897 16.5511 14.0897ZM13.9713 14.8282C13.9193 14.8803 13.8702 14.9352 13.8244 14.9928C13.7327 14.8775 13.6282 14.773 13.5129 14.6813C13.6282 14.5897 13.7327 14.4852 13.8244 14.3699C13.916 14.4852 14.0205 14.5896 14.1358 14.6813C14.0783 14.7272 14.0233 14.7762 13.9713 14.8282Z" fill="white"/>
</svg>
