<svg width="18" height="22" viewBox="0 0 18 22" fill="none" xmlns="http://www.w3.org/2000/svg">
<path d="M0.0427246 4.93048V13.5411C0.0427246 13.6585 0.0818635 13.7759 0.121002 13.8542C0.238419 14.089 2.66503 19.2553 8.34018 21.682H8.41846C8.49674 21.682 8.53588 21.7211 8.61415 21.7211C8.69243 21.7211 8.73157 21.7211 8.80985 21.682H8.88813C14.5633 19.2553 17.029 14.089 17.1073 13.8542C17.1464 13.7367 17.1856 13.6585 17.1856 13.5411V4.93048C17.1856 4.57823 16.9507 4.26512 16.5985 4.18684C13.6239 3.4432 9.04468 0.429505 9.00554 0.390366C8.9664 0.351227 8.92727 0.351227 8.84899 0.312088C8.80985 0.312088 8.80985 0.312088 8.77071 0.272949H8.41846C8.37932 0.272949 8.34018 0.312088 8.30104 0.312088C8.2619 0.351227 8.22276 0.351227 8.14449 0.390366C8.06621 0.429505 3.52609 3.4432 0.551531 4.18684C0.277558 4.26512 0.0427246 4.57823 0.0427246 4.93048ZM1.60828 5.51757C4.23059 4.69565 7.47912 2.69956 8.65329 1.95592C9.82746 2.69956 13.076 4.69565 15.6983 5.51757V13.3454C15.2678 14.1673 13.076 18.0812 8.65329 20.1164C4.23059 18.0812 2.03881 14.1673 1.60828 13.3454V5.51757Z" fill="white"/>
<path d="M7.32449 13.6984C7.48104 13.855 7.67674 13.9332 7.87243 13.9332C8.06813 13.9332 8.26382 13.855 8.42038 13.6984L12.2951 9.82364C12.6082 9.51053 12.6082 9.04087 12.2951 8.72775C11.982 8.41464 11.5124 8.41464 11.1992 8.72775L7.87243 12.0546L6.11118 10.2933C5.79807 9.9802 5.3284 9.9802 5.01529 10.2933C4.70218 10.6064 4.70218 11.0761 5.01529 11.3892L7.32449 13.6984Z" fill="white"/>
</svg>
