<svg width="18" height="18" viewBox="0 0 18 18" fill="none" xmlns="http://www.w3.org/2000/svg">
<path d="M8.04905 1.49883C8.3484 0.577518 9.65181 0.577518 9.95116 1.49883L11.3415 5.77774C11.4753 6.18977 11.8593 6.46873 12.2925 6.46873H16.7916C17.7604 6.46873 18.1631 7.70834 17.3794 8.27774L13.7396 10.9223C13.3891 11.1769 13.2424 11.6283 13.3763 12.0403L14.7666 16.3192C15.0659 17.2405 14.0115 18.0066 13.2278 17.4372L9.58789 14.7927C9.2374 14.5381 8.76281 14.5381 8.41232 14.7927L4.77246 17.4372C3.98874 18.0066 2.93426 17.2405 3.23362 16.3192L4.62392 12.0403C4.75779 11.6283 4.61114 11.1769 4.26065 10.9223L0.620785 8.27774C-0.162928 7.70834 0.239847 6.46873 1.20857 6.46873H5.70769C6.14091 6.46873 6.52487 6.18977 6.65874 5.77774L8.04905 1.49883Z" fill="white"/>
</svg>
