<svg width="14" height="14" viewBox="0 0 14 14" fill="none" xmlns="http://www.w3.org/2000/svg">
<path d="M3.69389 14C3.06225 14 2.46259 13.8566 1.93489 13.5698C0.687607 12.8906 0 11.5094 0 9.69057V4.30944C0 2.48302 0.687607 1.10944 1.93489 0.430195C3.18218 -0.24905 4.78926 -0.120748 6.4683 0.792458L11.4015 3.47925C13.0725 4.39245 14 5.64529 14 7.00378C14 8.36227 13.0805 9.6151 11.4015 10.5283L6.4683 13.2151C5.50086 13.7358 4.5574 14 3.69389 14ZM3.69389 1.12453C3.26214 1.12453 2.87836 1.2151 2.53455 1.40378C1.67105 1.8717 1.19931 2.90566 1.19931 4.30944V9.68302C1.19931 11.0868 1.67105 12.1132 2.53455 12.5887C3.39806 13.0642 4.58138 12.9283 5.86865 12.2264L10.8018 9.53963C12.0891 8.83774 12.8007 7.93963 12.8007 6.99623C12.8007 6.05284 12.0891 5.15472 10.8018 4.45283L5.86865 1.76604C5.08509 1.3434 4.34951 1.12453 3.69389 1.12453Z" fill="white"/>
</svg>
