<svg width="242" height="42" viewBox="0 0 242 42" fill="none" xmlns="http://www.w3.org/2000/svg">
<path d="M67.9336 14.1135C67.9336 14.1135 58.5894 35.6899 56.8926 38.3111C55.8043 39.9921 45.8516 13.7865 45.8516 13.7865" stroke="white" stroke-width="2" stroke-linecap="round" stroke-linejoin="round"/>
<path d="M72.4214 25.5584H96.9186C96.9186 25.5584 96.9317 24.1801 96.2285 21.6344C94.926 16.9192 92.1037 12.9691 85.1875 12.8056C84.8011 12.7964 76.717 11.3125 71.7313 19.9995C69.794 23.3753 71.3518 31.596 72.7664 33.7332C74.1655 35.8463 76.6898 38.2637 82.4273 38.9651C84.7177 39.2147 87.0227 39.3239 89.3279 39.2921C93.825 39.2957 100.405 39.2921 102.784 39.2921" stroke="white" stroke-width="2" stroke-linecap="round"/>
<path d="M103.818 2.66896V39.2923" stroke="white" stroke-width="2" stroke-linecap="round" stroke-linejoin="round"/>
<path d="M1.34503 5.93878C1.34503 5.93878 1.05521 37.6246 1.05521 34.784C1.05521 31.9434 1 37.7753 1 39.9462C1 41.3977 3.94208 40.9272 5.83044 40.9272H17.5615" stroke="white" stroke-width="2" stroke-linecap="round" stroke-linejoin="round"/>
<path d="M29.1236 37.6574C35.8883 37.6574 41.3722 32.4602 41.3722 26.0491C41.3722 19.638 35.8883 14.4408 29.1236 14.4408C22.3589 14.4408 16.875 19.638 16.875 26.0491C16.875 32.4602 22.3589 37.6574 29.1236 37.6574Z" stroke="white" stroke-width="2"/>
<path d="M215.266 29.1555L235.602 19.7119L238.079 18.5583C238.079 18.5583 237.45 17.3157 235.634 15.325C232.271 11.6375 227.338 11.5485 224.083 12.3241C222.844 12.6184 220.383 13.2744 218.716 14.4408C216.06 16.2997 212.698 18.8879 212.851 24.9046C213.026 31.8339 215.628 35.41 221.477 37.3304C231.751 40.7037 237.928 34.0353 240.798 31.4445" stroke="white" stroke-width="2" stroke-linecap="round" stroke-linejoin="round"/>
<path d="M209.055 1.03386V37.6572" stroke="white" stroke-width="2" stroke-linecap="round" stroke-linejoin="round"/>
<path d="M168.516 36.6763C175.281 36.6763 180.765 31.4791 180.765 25.068C180.765 18.6569 175.281 13.4597 168.516 13.4597C161.751 13.4597 156.268 18.6569 156.268 25.068C156.268 31.4791 161.751 36.6763 168.516 36.6763Z" stroke="white" stroke-width="2"/>
<path d="M195.768 36.6763C202.533 36.6763 208.017 31.4791 208.017 25.068C208.017 18.6569 202.533 13.4597 195.768 13.4597C189.003 13.4597 183.52 18.6569 183.52 25.068C183.52 31.4791 189.003 36.6763 195.768 36.6763Z" stroke="white" stroke-width="2"/>
<path d="M151.518 15.8577C151.518 15.8577 149.848 6.53835 135.937 6.70185C121.572 6.87058 118.404 17.2863 118.486 22.3547C118.689 34.9385 125.506 39.7793 136.56 39.7793C144.644 39.7793 152.548 34.9009 152.453 27.6707" stroke="white" stroke-width="2" stroke-linecap="round" stroke-linejoin="round"/>
</svg>
