<svg width="142" height="84" viewBox="0 0 142 84" fill="none" xmlns="http://www.w3.org/2000/svg">
<g clip-path="url(#clip0_2715_1826)">
<path d="M140.149 37.661C140.825 37.661 141.389 38.229 141.389 38.9107V46.21H138.909C135.19 46.21 132.176 49.249 132.176 52.9697V67.057C132.176 76.3161 124.681 83.871 115.497 83.871H83.6881C82.0259 83.871 80.4199 83.1893 79.293 81.9681L72.5875 74.9528C72.1086 74.4415 71.2915 74.4415 70.8126 74.9528C70.8126 74.9528 66.4456 79.4403 63.8535 82.0533C62.6984 83.2177 61.1207 83.871 59.4866 83.871H26.382C17.9579 83.871 11.1398 76.9693 11.1398 68.5055V52.4868C11.1116 50.9815 11.1116 48.1413 1.955 46.3236C1.39152 46.21 0.940737 45.7272 0.940737 45.1307L0.743518 38.7687C0.715344 38.1722 1.13796 37.661 1.70144 37.519C11.1398 35.048 11.1398 31.3274 11.1398 29.3108V16.6151C11.1398 7.44131 18.5214 0 27.6216 0H38.0461C38.7222 0 39.2857 0.568039 39.2857 1.24969V7.2709C39.2857 7.95255 38.7222 8.52059 38.0461 8.52059H27.6216C23.1983 8.52059 19.592 12.156 19.592 16.6151V29.3108C19.592 34.48 17.4789 38.0586 14.7179 40.558C14.1544 41.0692 14.1826 41.9497 14.7742 42.4325C17.5071 44.5911 19.5638 47.7721 19.592 52.4868V67.2842C19.592 71.7433 23.1983 75.3788 27.6216 75.3788H57.9933C58.3314 75.3788 58.6413 75.2368 58.8667 75.0096L91.436 41.9497C94.8732 38.087 93.5209 32.151 90.1682 28.7428C86.5055 25.0505 81.5187 25.0505 76.5319 28.686C75.2641 29.5948 73.7427 30.0777 72.2213 30.1345C70.6153 30.1913 69.0376 29.7937 67.6852 28.9416C63.6845 26.3854 59.7119 25.5334 56.3029 26.5842C53.3728 27.4931 51.2034 29.7653 50.1328 32.9747C48.6114 38.7687 52.1049 42.3473 59.5147 49.249C60.8953 50.5271 62.2758 51.8336 63.7127 53.2253C64.2198 53.7081 64.2198 54.5318 63.7409 55.0146L59.5147 59.3033C59.0358 59.7861 58.2469 59.7861 57.7679 59.3033C56.4156 57.9968 55.0914 56.7471 53.7954 55.5542C46.2165 48.5105 39.0321 41.8361 42.0468 30.5321C44.019 24.5109 48.3014 20.1938 53.8236 18.4897C59.3175 16.7572 65.375 17.7228 71.2352 21.1595C71.6578 21.4151 72.1649 21.3867 72.5593 21.1027C82.2231 14.5986 91.1543 17.666 96.1693 22.7784C102.283 28.9984 104.481 40.0468 97.578 47.8289L78.5041 67.1706C78.0251 67.6535 78.0251 68.4203 78.5041 68.9316L84.308 75.0096C84.5333 75.2652 84.8714 75.4072 85.2095 75.4072H116.736C120.568 75.4072 123.724 72.2546 123.724 68.3635V53.0265C123.724 49.1354 125.189 45.5567 127.583 42.8302C128.006 42.3473 128.006 41.6373 127.583 41.126C125.189 38.4278 123.724 34.8492 123.724 30.9297V17.9216C123.724 12.7525 119.526 8.52059 114.398 8.52059H104.396C103.72 8.52059 103.156 7.95255 103.156 7.2709V1.24969C103.156 0.568039 103.72 0 104.396 0H115.638C124.738 0 132.176 7.46971 132.176 16.6719V29.6232C132.176 34.054 135.754 37.661 140.149 37.661Z" fill="url(#paint0_linear_2715_1826)"/>
</g>
<defs>
<linearGradient id="paint0_linear_2715_1826" x1="0.743518" y1="41.9361" x2="141.387" y2="41.9361" gradientUnits="userSpaceOnUse">
<stop stop-color="#F9CC22"/>
<stop offset="1" stop-color="#F83600"/>
</linearGradient>
<clipPath id="clip0_2715_1826">
<rect width="140.645" height="83.871" fill="white" transform="translate(0.742188)"/>
</clipPath>
</defs>
</svg>
