<svg width="12" height="14" viewBox="0 0 12 14" fill="none" xmlns="http://www.w3.org/2000/svg">
<g clip-path="url(#clip0_390_200)">
<path d="M5.85326 6.77379C6.70816 6.77379 7.44835 6.48032 8.05333 5.90133C8.65811 5.32247 8.96483 4.61417 8.96483 3.7959C8.96483 2.97787 8.65821 2.2695 8.05323 1.69041C7.44825 1.11162 6.70806 0.818176 5.85326 0.818176C4.99823 0.818176 4.25811 1.11162 3.65325 1.69051C3.0484 2.2694 2.74166 2.9778 2.74166 3.7959C2.74166 4.61417 3.04837 5.32256 3.65328 5.90145C4.25833 6.48025 4.99853 6.77379 5.85323 6.77379H5.85326ZM4.18864 2.2028C4.65276 1.75861 5.19723 1.5427 5.85326 1.5427C6.50918 1.5427 7.05373 1.75861 7.51794 2.2028C7.98208 2.64707 8.20778 3.16823 8.20778 3.79587C8.20778 4.42371 7.98208 4.9448 7.51794 5.38907C7.05373 5.83336 6.50918 6.04926 5.85326 6.04926C5.19741 6.04926 4.65298 5.83326 4.18864 5.38907C3.72441 4.94489 3.49871 4.42374 3.49871 3.7959C3.49871 3.16823 3.72441 2.64707 4.18864 2.2028ZM11.2977 10.3252C11.2802 10.0843 11.2449 9.82147 11.193 9.54399C11.1406 9.26438 11.0731 9.00008 10.9922 8.75851C10.9087 8.50882 10.7952 8.26228 10.6547 8.02597C10.5092 7.78072 10.3381 7.56716 10.1461 7.39144C9.94531 7.2076 9.6995 7.05979 9.41524 6.95195C9.13199 6.84474 8.81806 6.7904 8.48227 6.7904C8.35039 6.7904 8.22287 6.84218 7.97655 6.99566C7.80147 7.10477 7.62586 7.21311 7.44974 7.32069C7.28051 7.42389 7.05126 7.52058 6.76808 7.60812C6.49182 7.69367 6.21132 7.73706 5.93435 7.73706C5.65761 7.73706 5.37708 7.69367 5.10062 7.60812C4.81777 7.52065 4.58842 7.42399 4.41946 7.32078C4.22341 7.20089 4.04603 7.09148 3.89217 6.99554C3.64606 6.84208 3.51852 6.79028 3.38665 6.79028C3.05074 6.79028 2.73694 6.84471 2.45376 6.95207C2.1697 7.0597 1.9238 7.20751 1.72283 7.39154C1.53084 7.56735 1.35974 7.7808 1.21425 8.02597C1.07402 8.26225 0.960474 8.50873 0.876882 8.75861C0.79614 9.00018 0.728645 9.26438 0.676214 9.54399C0.624161 9.82111 0.588988 10.084 0.571527 10.3255C0.55437 10.5616 0.545715 10.8073 0.545715 11.0556C0.545715 11.701 0.760084 12.2234 1.18282 12.6087C1.60033 12.989 2.15267 13.1818 2.82454 13.1818H9.04497C9.71663 13.1818 10.269 12.989 10.6866 12.6088C11.1094 12.2237 11.3238 11.7011 11.3238 11.0555C11.3237 10.8064 11.3149 10.5606 11.2977 10.3252ZM10.1646 12.0838C9.88874 12.3351 9.52248 12.4573 9.04484 12.4573H2.82457C2.34686 12.4573 1.98059 12.3351 1.70481 12.0839C1.43428 11.8374 1.30279 11.501 1.30279 11.0556C1.30279 10.8239 1.31077 10.5952 1.32676 10.3756C1.34231 10.1601 1.37415 9.92344 1.42138 9.67197C1.46798 9.42361 1.5273 9.19054 1.59788 8.97953C1.6656 8.77718 1.75795 8.57685 1.87247 8.38386C1.98178 8.1999 2.10753 8.0421 2.24631 7.91496C2.37612 7.79601 2.53975 7.69867 2.73252 7.62567C2.91081 7.55811 3.1112 7.52114 3.32872 7.51556C3.35522 7.52908 3.40245 7.55482 3.47893 7.60254C3.63456 7.69961 3.81393 7.81035 4.01225 7.93155C4.2358 8.06796 4.52377 8.19114 4.86786 8.29744C5.21961 8.40629 5.57838 8.46157 5.93448 8.46157C6.2906 8.46157 6.64944 8.40629 7.00102 8.29753C7.34538 8.19104 7.63328 8.06796 7.85713 7.93136C8.06007 7.80724 8.23442 7.69971 8.39003 7.60254C8.46653 7.55489 8.51374 7.52906 8.54026 7.51558C8.75788 7.52114 8.95824 7.55811 9.13663 7.62565C9.32933 7.69867 9.49296 7.79611 9.62275 7.91494C9.76152 8.042 9.88728 8.19983 9.99658 8.38396C10.1112 8.57685 10.2037 8.7773 10.2713 8.97944C10.342 9.19073 10.4014 9.42371 10.4479 9.67187C10.495 9.92383 10.527 10.1606 10.5425 10.3757V10.3758C10.5586 10.5946 10.5667 10.8232 10.5668 11.0556C10.5667 11.5011 10.4352 11.8375 10.1646 12.0838H10.1646Z" fill="white"/>
</g>
<defs>
<clipPath id="clip0_390_200">
<rect width="10.9091" height="12.3636" fill="white" transform="translate(0.545471 0.818176)"/>
</clipPath>
</defs>
</svg>
